<svg width="1152" height="720" viewBox="0 0 1152 720" fill="none" xmlns="http://www.w3.org/2000/svg">
  <rect width="1152" height="720" fill="#F7F3EA"/>
  <rect x="64" y="64" width="1024" height="592" rx="42" fill="#101112"/>
  <g stroke="#F7F3EA" stroke-opacity=".2" stroke-width="3">
    <path d="M264 280L424 182L598 302L768 188L906 318"/>
    <path d="M264 280L388 438L598 302L716 496L906 318"/>
    <path d="M424 182L388 438L716 496L768 188"/>
  </g>
  <g>
    <circle cx="264" cy="280" r="42" fill="#50C8FF"/>
    <circle cx="424" cy="182" r="42" fill="#F6C85F"/>
    <circle cx="598" cy="302" r="54" fill="#9DF27F"/>
    <circle cx="768" cy="188" r="42" fill="#FF6B78"/>
    <circle cx="906" cy="318" r="42" fill="#F7F3EA"/>
    <circle cx="388" cy="438" r="42" fill="#F7F3EA"/>
    <circle cx="716" cy="496" r="42" fill="#50C8FF"/>
  </g>
  <path d="M168 580H1000" stroke="#F7F3EA" stroke-opacity=".16" stroke-width="2"/>
  <rect x="168" y="544" width="188" height="28" rx="14" fill="#9DF27F"/>
  <rect x="388" y="544" width="132" height="28" rx="14" fill="#50C8FF"/>
  <rect x="552" y="544" width="254" height="28" rx="14" fill="#F6C85F"/>
  <rect x="838" y="544" width="100" height="28" rx="14" fill="#FF6B78"/>
  <g font-family="Geist, Arial, sans-serif" font-weight="700">
    <text x="160" y="142" fill="#F7F3EA" font-size="36">Knowledge Graph Evaluation</text>
    <text x="160" y="188" fill="#F7F3EA" fill-opacity=".58" font-size="22">models, links, ranking metrics, reproducible experiments</text>
  </g>
</svg>
